<svg xmlns="http://www.w3.org/2000/svg" xmlns:xlink="http://www.w3.org/1999/xlink" viewBox="0 0 2546.86 559.52"><defs><style>.a{fill:url(#a);}.b{fill:#2b779a;}</style><linearGradient id="a" x1="245.77" y1="262.12" x2="813.46" y2="262.12" gradientUnits="userSpaceOnUse"><stop offset="0" stop-color="#a5d1e5"/><stop offset="0.03" stop-color="#9ecee4"/><stop offset="0.21" stop-color="#79c0e1"/><stop offset="0.38" stop-color="#5cb5de"/><stop offset="0.55" stop-color="#47addc"/><stop offset="0.73" stop-color="#3ba9db"/><stop offset="0.89" stop-color="#37a7db"/></linearGradient></defs><path class="a" d="M530.16,67.54c148.6,0,270.61,114,283.3,259.34-87.38.2-188,19.37-303,67.05-91,37.74-172.36,57-244.79,62.76a283.47,283.47,0,0,1-19.92-104.76c0-157,127.36-284.39,284.39-284.39Z" transform="translate(-40.29 -67.54)"/><path class="b" d="M40.29,443.56a481,481,0,0,0,143.58,63,522.77,522.77,0,0,0,132.4,15.78c83.12-.49,179.05-19.05,289-64.65,112-46.45,234.09-75.64,356-64.75a527.34,527.34,0,0,1,126.16,26.83,482.61,482.61,0,0,0-194.56-73.27,539.87,539.87,0,0,0-78.42-5.59c-83.81,0-180.76,18.49-292.11,64.66-89.42,37.09-170.18,56.92-242.78,64-62,6.05-124.94,3.28-185.76-10.66a512.51,512.51,0,0,1-53.56-15.37Zm593.65,118c-63,26.12-120.71,41.74-173.42,49.22a529.22,529.22,0,0,1-78.35,5.39c50.12,14.47,103.33,13.57,154.12,3.13,28.53-5.86,59.2-15.25,92.12-28.9a572.13,572.13,0,0,1,65.26-22.72C746.34,553,801.88,546.8,856.16,555c-39.85-15.65-82.73-21.18-125.35-18.54-35.75,2.22-63.93,11.4-96.87,25.06Zm-16.71-75.14C516.35,528.22,426.53,548.11,347,552.5a605.09,605.09,0,0,1-63.39.23,550.38,550.38,0,0,1-80.32-9.87c59.47,30,125,43.37,191.31,42.14,65.69-1.22,141.19-16.39,227.43-52.15,91.35-37.88,190.81-61.61,290.21-52.73a435.39,435.39,0,0,1,80,14.67,386.1,386.1,0,0,0-93.83-38,418,418,0,0,0-105.43-13c-63.91,0-117,18.27-175.78,42.66Z" transform="translate(-40.29 -67.54)"/><path class="b" d="M1338.56,250.19a55.38,55.38,0,0,0-9.14-6.64,141.57,141.57,0,0,0-16.14-8.42,127.06,127.06,0,0,0-20.62-7.18,90.14,90.14,0,0,0-22.59-2.86q-20.08,0-30.3,7.31t-10.22,21.23q0,10.35,6.46,16.41t19.36,10.35q12.92,4.29,32.27,9.28,25.11,6.06,43.57,14.8t28.33,22.84q9.86,14.1,9.86,37.64,0,20-7.53,34.26a64.88,64.88,0,0,1-20.62,23.37,88.8,88.8,0,0,1-30.12,13.2,153.79,153.79,0,0,1-36,4.1,187.27,187.27,0,0,1-38-3.94,195,195,0,0,1-36.39-11.3,180.12,180.12,0,0,1-32.45-17.75l21.87-42.67q3.23,3.22,11.47,8.42a153.93,153.93,0,0,0,20.08,10.4,167.34,167.34,0,0,0,25.82,8.79,113.7,113.7,0,0,0,28.33,3.58q20.45,0,30.48-6.56t10-19.32q0-11.43-8.07-18t-22.77-11.43q-14.7-4.81-34.78-10.18-24.39-6.78-40.34-15.35t-24-21.24q-8.07-12.68-8.06-32,0-26.07,12.55-43.74t33.7-26.78q21.17-9.12,47-9.11a140.77,140.77,0,0,1,33.88,3.94,167.25,167.25,0,0,1,29.95,10.4,176.23,176.23,0,0,1,25.1,14Z" transform="translate(-40.29 -67.54)"/><path class="b" d="M1514.27,439.88q-30.12,0-51.46-10.22a89.62,89.62,0,0,1-34.42-28.15,121.51,121.51,0,0,1-19.19-40.7,183.12,183.12,0,0,1-6.09-47.51V183.49h49.12V313.3a137,137,0,0,0,3.41,30.66,92.9,92.9,0,0,0,10.4,26.71,51.24,51.24,0,0,0,18.82,18.65q11.84,6.81,29.41,6.81,18.29,0,29.94-7A54.65,54.65,0,0,0,1563,370.31a86.62,86.62,0,0,0,10.4-26.71,142.63,142.63,0,0,0,3.22-30.3V183.49h49.13V313.3a181.08,181.08,0,0,1-6.46,48.95,118.66,118.66,0,0,1-19.72,40.52A90.54,90.54,0,0,1,1565.19,430Q1544,439.89,1514.27,439.88Z" transform="translate(-40.29 -67.54)"/><path class="b" d="M1725.12,274.57V438.09h-49.49V183.49h39.81l131.24,167.82V183.85h49.13V438.09h-40.88Z" transform="translate(-40.29 -67.54)"/><path class="b" d="M2100.91,250.19a55.38,55.38,0,0,0-9.14-6.64,142.42,142.42,0,0,0-16.14-8.42A127.06,127.06,0,0,0,2055,228a90.14,90.14,0,0,0-22.59-2.86q-20.09,0-30.3,7.31t-10.22,21.23q0,10.35,6.46,16.41t19.36,10.35q12.91,4.29,32.27,9.28,25.1,6.06,43.57,14.8t28.33,22.84q9.86,14.1,9.86,37.64,0,20-7.53,34.26a64.88,64.88,0,0,1-20.62,23.37,88.8,88.8,0,0,1-30.12,13.2,153.79,153.79,0,0,1-36,4.1,187.27,187.27,0,0,1-38-3.94,195,195,0,0,1-36.39-11.3,180.2,180.2,0,0,1-32.46-17.75l21.88-42.67q3.22,3.22,11.47,8.42A153.28,153.28,0,0,0,1984,383a167.34,167.34,0,0,0,25.82,8.79,113.64,113.64,0,0,0,28.33,3.58q20.44,0,30.48-6.56t10-19.32q0-11.43-8.07-18t-22.77-11.43q-14.7-4.81-34.78-10.18-24.39-6.78-40.34-15.35t-24-21.24q-8.07-12.68-8.07-32,0-26.07,12.55-43.74a78.32,78.32,0,0,1,33.71-26.78q21.15-9.12,47-9.11a140.77,140.77,0,0,1,33.88,3.94,167.25,167.25,0,0,1,30,10.4,176.23,176.23,0,0,1,25.1,14Z" transform="translate(-40.29 -67.54)"/><path class="b" d="M2169,438.09V183.49H2277a73.78,73.78,0,0,1,32.45,7.17A80.55,80.55,0,0,1,2335.07,210a91.36,91.36,0,0,1,16.67,27.25,83.55,83.55,0,0,1,5.92,30.84,90.66,90.66,0,0,1-9.68,40.7,81.93,81.93,0,0,1-27.44,31.73q-17.74,12.19-41.41,12.19h-60.6v85.35Zm49.49-128.74h57.37a28.07,28.07,0,0,0,16.5-5q7.16-5,11.29-14.52a54,54,0,0,0,4.12-21.69q0-13.26-4.84-22.42a35.82,35.82,0,0,0-12.55-14,30.76,30.76,0,0,0-16.67-4.84h-55.22Z" transform="translate(-40.29 -67.54)"/><path class="b" d="M2443.36,183.49h50.2l93.59,254.6h-50.92l-21.16-63.47h-93.48l-21.26,63.47h-50.92Zm60.12,156.34-35-105.06-35.21,105.06Z" transform="translate(-40.29 -67.54)"/><path class="b" d="M1172.71,584.66l-.89-1.79H1219v4.58h-50.75v-4.38l44.68-58.52.9,1.79h-44.69v-4.58h48.27v4.38Z" transform="translate(-40.29 -67.54)"/><path class="b" d="M1277.61,520.77a30.39,30.39,0,0,1,16.12,4.13,27.4,27.4,0,0,1,10.45,11.69,45.94,45.94,0,0,1,0,36,27.4,27.4,0,0,1-10.45,11.69,33.45,33.45,0,0,1-32.2,0,27.31,27.31,0,0,1-10.5-11.69,45.94,45.94,0,0,1,0-36,27.31,27.31,0,0,1,10.5-11.69A30.49,30.49,0,0,1,1277.61,520.77Zm0,4.58a24.51,24.51,0,0,0-13.29,3.53,23.29,23.29,0,0,0-8.71,10.1,41.17,41.17,0,0,0,0,31.25,23.23,23.23,0,0,0,8.71,10.1,26.86,26.86,0,0,0,26.62,0,23.32,23.32,0,0,0,8.66-10.1,41,41,0,0,0,0-31.25,23.38,23.38,0,0,0-8.66-10.1A24.41,24.41,0,0,0,1277.61,525.35Z" transform="translate(-40.29 -67.54)"/><path class="b" d="M1368.67,521.76q9.84,0,15.67,5t5.82,13.64q0,8.65-5.87,13.48t-15.72,4.83l-.5.29h-18.81v28.47h-5V521.76Zm-.1,32.55q8,0,12.19-3.59t4.23-10.34c0-4.52-1.41-8-4.23-10.41s-6.89-3.63-12.19-3.63h-19.31v28Zm3.88.89,21.2,32.25h-5.88L1368.27,558Z" transform="translate(-40.29 -67.54)"/><path class="b" d="M1453.56,588.44a30.08,30.08,0,0,1-16-4.13,27.27,27.27,0,0,1-10.45-11.69,40.7,40.7,0,0,1-3.69-18,39.53,39.53,0,0,1,3.83-18,28.29,28.29,0,0,1,10.65-11.69,29.91,29.91,0,0,1,15.78-4.13q10,0,16.27,4t9.4,12.14l-4.57,2.39a19.44,19.44,0,0,0-7.57-10.4q-5.28-3.52-13.53-3.53a23.18,23.18,0,0,0-21.9,13.63,35.55,35.55,0,0,0-3.18,15.63,37.53,37.53,0,0,0,3,15.62,22.59,22.59,0,0,0,8.61,10.1,25,25,0,0,0,13.59,3.53,23.69,23.69,0,0,0,9.5-1.74,19.51,19.51,0,0,0,6.67-4.57,18.58,18.58,0,0,0,3.93-6.47,22,22,0,0,0,1.29-7.42V560h-22.29V555.3h27v32.15h-4.08l-.2-14.23.9.2a21.42,21.42,0,0,1-8.21,11Q1462.42,588.45,1453.56,588.44Z" transform="translate(-40.29 -67.54)"/><path class="b" d="M1517.25,587.45V521.76h44.88v4.58h-39.9v25.38h31.54v4.68h-31.54v26.47h41.5v4.58Z" transform="translate(-40.29 -67.54)"/><path class="b" d="M1603,582.87h39.41v4.58h-44.39V521.76h5Z" transform="translate(-40.29 -67.54)"/><path class="b" d="M1697.08,520.77a30.42,30.42,0,0,1,16.13,4.13,27.31,27.31,0,0,1,10.44,11.69,45.82,45.82,0,0,1,0,36,27.31,27.31,0,0,1-10.44,11.69,33.45,33.45,0,0,1-32.2,0,27.19,27.19,0,0,1-10.5-11.69,45.94,45.94,0,0,1,0-36A27.19,27.19,0,0,1,1681,524.9,30.43,30.43,0,0,1,1697.08,520.77Zm0,4.58a24.45,24.45,0,0,0-13.28,3.53,23.22,23.22,0,0,0-8.71,10.1,41,41,0,0,0,0,31.25,23.17,23.17,0,0,0,8.71,10.1,26.86,26.86,0,0,0,26.62,0,23.39,23.39,0,0,0,8.66-10.1,41.17,41.17,0,0,0,0-31.25,23.45,23.45,0,0,0-8.66-10.1A24.45,24.45,0,0,0,1697.08,525.35Z" transform="translate(-40.29 -67.54)"/><path class="b" d="M1789.83,520.77A30.42,30.42,0,0,1,1806,524.9a27.4,27.4,0,0,1,10.45,11.69,45.94,45.94,0,0,1,0,36A27.4,27.4,0,0,1,1806,584.31a33.45,33.45,0,0,1-32.2,0,27.31,27.31,0,0,1-10.5-11.69,45.94,45.94,0,0,1,0-36,27.31,27.31,0,0,1,10.5-11.69A30.45,30.45,0,0,1,1789.83,520.77Zm0,4.58a24.5,24.5,0,0,0-13.28,3.53,23.29,23.29,0,0,0-8.71,10.1,41.17,41.17,0,0,0,0,31.25,23.23,23.23,0,0,0,8.71,10.1,26.86,26.86,0,0,0,26.62,0,23.39,23.39,0,0,0,8.66-10.1,41.17,41.17,0,0,0,0-31.25,23.45,23.45,0,0,0-8.66-10.1A24.45,24.45,0,0,0,1789.83,525.35Z" transform="translate(-40.29 -67.54)"/><path class="b" d="M1876.81,520.77q9.06,0,15.28,3.58a23,23,0,0,1,9.51,10.95l-4.18,3.18q-2.89-7-8.12-10.05a25,25,0,0,0-12.88-3.08,24.1,24.1,0,0,0-10,1.84,14.91,14.91,0,0,0-6.22,4.87,11.62,11.62,0,0,0-2.14,6.82,10.29,10.29,0,0,0,3,7.57q3,3,11,4.77L1885,554q9.64,2.09,13.58,6a13.68,13.68,0,0,1,3.93,10.1,15.48,15.48,0,0,1-3.14,9.56,20.18,20.18,0,0,1-8.6,6.46,33,33,0,0,1-12.84,2.29,37.7,37.7,0,0,1-12.59-1.94A26.23,26.23,0,0,1,1856,581a21.46,21.46,0,0,1-5.57-8.51l4.38-3.38a19.17,19.17,0,0,0,4.63,8,20.33,20.33,0,0,0,8,5,31.65,31.65,0,0,0,10.65,1.69,29.83,29.83,0,0,0,10-1.54,14.93,14.93,0,0,0,6.82-4.53,11.27,11.27,0,0,0,2.43-7.36,9.52,9.52,0,0,0-2.93-7.07q-2.94-2.88-10.4-4.38l-13.54-3a35.47,35.47,0,0,1-10.15-3.68,14.57,14.57,0,0,1-5.62-5.53,15.16,15.16,0,0,1-1.74-7.31,16.14,16.14,0,0,1,2.89-9.31,20.31,20.31,0,0,1,8.26-6.81A29,29,0,0,1,1876.81,520.77Z" transform="translate(-40.29 -67.54)"/><path class="b" d="M2016,588.44a30.08,30.08,0,0,1-16-4.13,27.27,27.27,0,0,1-10.45-11.69q-3.69-7.56-3.68-18t3.83-18a28.16,28.16,0,0,1,10.65-11.69,29.85,29.85,0,0,1,15.77-4.13q10,0,16.27,4t9.4,12.14l-4.57,2.39a19.44,19.44,0,0,0-7.57-10.4q-5.26-3.52-13.53-3.53a23.18,23.18,0,0,0-21.9,13.63,35.55,35.55,0,0,0-3.18,15.63,37.37,37.37,0,0,0,3,15.62,22.57,22.57,0,0,0,8.6,10.1,25,25,0,0,0,13.59,3.53,23.63,23.63,0,0,0,9.5-1.74,19.51,19.51,0,0,0,6.67-4.57,18.58,18.58,0,0,0,3.93-6.47,22,22,0,0,0,1.29-7.42V560h-22.29V555.3h27v32.15h-4.08l-.2-14.23.9.2a21.42,21.42,0,0,1-8.21,11Q2024.9,588.45,2016,588.44Z" transform="translate(-40.29 -67.54)"/><path class="b" d="M2079.73,587.45V521.76h44.89v4.58h-39.91v25.38h31.54v4.68h-31.54v26.47h41.5v4.58Z" transform="translate(-40.29 -67.54)"/><path class="b" d="M2211,521.76v65.69h-6.17L2170,535.9l-4.88-8.46h-.1l.3,8v52.05h-4.78V521.76h6.27l34.73,51.46,5,8.55-.2-8v-52Z" transform="translate(-40.29 -67.54)"/><path class="b" d="M2256.58,521.76v65.69h-5V521.76Z" transform="translate(-40.29 -67.54)"/><path class="b" d="M2297.18,587.45V521.76h44.89v4.58h-39.91v25.38h31.54v4.68h-31.54v26.47h41.5v4.58Z" transform="translate(-40.29 -67.54)"/><path class="b" d="M2422.78,521.76v4.58h-24v61.11h-5V526.34h-24v-4.58Z" transform="translate(-40.29 -67.54)"/><path class="b" d="M2455.22,587.45V521.76h44.88v4.58h-39.91v25.38h31.55v4.68h-31.55v26.47h41.5v4.58Z" transform="translate(-40.29 -67.54)"/><path class="b" d="M2586.48,521.76v65.69h-6.17l-34.83-51.55-4.87-8.46h-.1l.3,8v52.05H2536V521.76h6.27L2577,573.22l5,8.55-.2-8v-52Z" transform="translate(-40.29 -67.54)"/></svg>